<?xml version="1.0" encoding="UTF-8"?>
<svg version="1.1" xmlns="http://www.w3.org/2000/svg" width="293" height="325">
<path d="M0 0 C5.41385296 4.44030923 8.05975734 9.61867455 10.65625 15.9609375 C11.03007812 16.85272705 11.40390625 17.7445166 11.7890625 18.66333008 C16.23655527 29.37654495 20.44510503 40.18966971 24.67993164 50.98828125 C30.4459107 65.68187997 36.36411276 80.31185665 42.32226562 94.9284668 C42.6722612 95.78901169 43.02225677 96.64955658 43.38285828 97.53617859 C44.03551817 99.14078224 44.68971221 100.74476315 45.34577942 102.34797668 C47.91115457 108.65888174 50.11996431 114.62765201 50.78125 121.4609375 C50.85859375 122.2446875 50.9359375 123.0284375 51.015625 123.8359375 C51.55445233 134.37300523 48.4479093 144.36868538 45.78125 154.4609375 C45.42909424 155.79439209 45.42909424 155.79439209 45.06982422 157.15478516 C44.83924316 158.02538574 44.60866211 158.89598633 44.37109375 159.79296875 C44.14639404 160.64173584 43.92169434 161.49050293 43.69018555 162.36499023 C43.26384867 163.96371403 42.83207644 165.56100248 42.39379883 167.15649414 C32.94739976 202.01737708 47.77817392 234.78454645 60.78125 266.4609375 C61.15491699 267.37939453 61.52858398 268.29785156 61.91357422 269.24414062 C66.55285663 280.59835477 71.69027213 292.06298376 83.30859375 297.68359375 C88.55994629 299.83502893 93.39256447 301.59942811 99.109375 301.55859375 C100.30820312 301.55375977 100.30820312 301.55375977 101.53125 301.54882812 C102.35625 301.54044922 103.18125 301.53207031 104.03125 301.5234375 C104.87171875 301.51892578 105.7121875 301.51441406 106.578125 301.50976562 C108.64586401 301.49801711 110.71356624 301.48008272 112.78125 301.4609375 C111.03447893 296.91802216 109.28395565 292.37656563 107.53125 287.8359375 C107.26414215 287.14366058 106.9970343 286.45138367 106.72183228 285.73812866 C102.96714773 276.01467335 99.13508608 266.32608587 95.23077393 256.66183472 C81.43170461 222.46589517 76.27594712 199.96603361 89.05078125 164.31640625 C89.38851562 163.37152344 89.72625 162.42664063 90.07421875 161.453125 C90.3786792 160.61120605 90.68313965 159.76928711 90.99682617 158.90185547 C93.61000368 150.77034327 93.77988856 142.47823373 90.84375 134.41796875 C89.68500199 132.28365716 88.59651724 131.26781741 86.65625 129.8359375 C83.78125 127.4609375 83.78125 127.4609375 82.65625 123.8984375 C82.78125 120.4609375 82.78125 120.4609375 84.34375 117.9609375 C86.78125 116.4609375 86.78125 116.4609375 89.53125 116.1484375 C96.52480351 118.97275719 100.92996047 125.90755857 104.08984375 132.5390625 C108.93776967 146.0146532 104.55845293 160.15408492 99.734375 172.94140625 C95.97964353 183.06383535 93.01345852 192.45981803 92.90625 203.3359375 C92.8767627 204.61500977 92.8767627 204.61500977 92.84667969 205.91992188 C93.29952575 223.36433966 103.21981836 241.58032557 109.53125 257.5234375 C110.38322701 259.68668575 111.23479104 261.8500967 112.0859375 264.01367188 C112.93742131 266.17451018 113.78898363 268.33531754 114.640625 270.49609375 C115.2659613 272.08594589 115.2659613 272.08594589 115.90393066 273.70791626 C118.11743843 279.31769987 120.37156772 284.90691636 122.68554688 290.47607422 C123.38868011 292.18433632 123.38868011 292.18433632 124.10601807 293.92710876 C125.00478435 296.10655631 125.91393827 298.28175778 126.8348999 300.45191956 C127.23646301 301.42999069 127.63802612 302.40806183 128.05175781 303.41577148 C128.41070129 304.27186508 128.76964478 305.12795868 129.13946533 306.00999451 C129.8898682 308.87574487 129.62199358 310.64358183 128.78125 313.4609375 C124.63196456 317.61022294 110.70644781 315.70490349 104.81201172 315.71411133 C89.5672557 315.45569457 76.21579202 310.52597449 64.78125 300.4609375 C58.26172819 293.3989751 54.16833618 285.77350009 50.71972656 276.87207031 C49.09393635 272.69509212 47.41634005 268.53906645 45.73779297 264.38305664 C44.78880018 262.03125337 43.84733197 259.67639537 42.91455078 257.31811523 C37.66416022 244.23574987 31.7105449 234.3902324 21.78125 224.4609375 C21.1109375 223.790625 20.440625 223.1203125 19.75 222.4296875 C2.0088443 205.89132202 -19.44374455 201.77458489 -42.78125 202.15625 C-60.52549572 202.78039353 -76.83822 209.87606304 -90.21875 221.4609375 C-91.20875 222.1828125 -92.19875 222.9046875 -93.21875 223.6484375 C-107.19014572 235.52412387 -113.00366424 254.56595446 -119.34375 271.0859375 C-120.40243313 273.8273696 -121.46275676 276.56816341 -122.52316284 279.30892944 C-123.17685072 281.00030192 -123.8292391 282.6921775 -124.48001099 284.38467407 C-126.67787115 290.09646027 -128.93378469 295.78345382 -131.21875 301.4609375 C-117.00903548 301.99104084 -106.14334764 301.7960085 -94.484375 292.73046875 C-87.1160645 285.34945427 -83.22421721 277.59579745 -79.53125 267.8984375 C-71.25962365 246.65671542 -71.25962365 246.65671542 -66.71875 243.0859375 C-65.86796875 242.39371094 -65.86796875 242.39371094 -65 241.6875 C-60.26732737 238.42859824 -56.30919037 238.15368531 -50.62109375 238.16015625 C-49.79041885 238.15587112 -48.95974396 238.151586 -48.10389709 238.14717102 C-46.35141917 238.14143801 -44.59891746 238.14091987 -42.84643555 238.14526367 C-40.16218736 238.1484305 -37.47903441 238.12492887 -34.79492188 238.09960938 C-33.09114722 238.09733699 -31.38736961 238.0966326 -29.68359375 238.09765625 C-28.88042221 238.0884465 -28.07725067 238.07923676 -27.2497406 238.06974792 C-21.73737389 238.11567225 -21.73737389 238.11567225 -19.21313477 239.79614258 C-17.63960498 242.43053973 -17.84498361 244.47080636 -18.21875 247.4609375 C-19.50288391 249.12141418 -19.50288391 249.12141418 -21.21875 250.4609375 C-24.15272683 250.79225631 -26.88584481 250.94963856 -29.82421875 250.97265625 C-30.66342361 250.99060745 -31.50262848 251.00855865 -32.36726379 251.02705383 C-35.04687479 251.08122313 -37.72630702 251.11507323 -40.40625 251.1484375 C-42.22333221 251.18160479 -44.0403908 251.2160939 -45.85742188 251.25195312 C-50.31106905 251.33695322 -54.76466259 251.40373252 -59.21875 251.4609375 C-60.72649267 255.19870255 -62.17603049 258.95578429 -63.609375 262.72265625 C-64.31898781 264.56587059 -65.0286364 266.40907162 -65.73974609 268.25170898 C-66.45901577 270.1231109 -67.16902755 271.99806255 -67.87890625 273.87304688 C-74.5474567 291.09554286 -83.00434203 303.45391252 -100.15625 311.3984375 C-106.06848328 313.96708083 -110.96756234 314.61947368 -117.4140625 314.62890625 C-118.20271698 314.63223465 -118.99137146 314.63556305 -119.80392456 314.63899231 C-121.46644509 314.64404409 -123.12897571 314.64640118 -124.79150391 314.64624023 C-127.34163887 314.64843568 -129.89134726 314.6666339 -132.44140625 314.68554688 C-134.05729019 314.68847931 -135.67317618 314.69046511 -137.2890625 314.69140625 C-138.05364777 314.69859177 -138.81823303 314.70577728 -139.60598755 314.71318054 C-144.98991333 314.68977417 -144.98991333 314.68977417 -147.21875 312.4609375 C-147.0756501 304.61429306 -144.40782254 298.28837845 -141.34375 291.1484375 C-140.34058617 288.75468561 -139.33934555 286.36012701 -138.33984375 283.96484375 C-138.08264053 283.35187439 -137.82543732 282.73890503 -137.56044006 282.10736084 C-134.25016621 274.19694536 -131.17842912 266.19327196 -128.10009766 258.19018555 C-117.41763479 230.69500606 -102.73452852 209.23995226 -75.30322266 196.57666016 C-50.38893318 185.70918881 -23.52098284 185.70338164 1.81054688 195.60546875 C9.48000536 198.93472823 17.23800614 203.25947276 23.78125 208.4609375 C22.39305265 203.83126411 20.48709347 199.70479301 18.09375 195.5234375 C17.56309937 194.5960376 17.56309937 194.5960376 17.02172852 193.64990234 C14.58293498 189.52036462 12.01973667 186.20241329 8.46484375 183.01171875 C6.69687572 181.38321919 5.28228919 179.64878163 3.78125 177.7734375 C-5.79455304 166.76872844 -18.33021994 158.98760206 -31.21875 152.4609375 C-32.18772217 151.967146 -32.18772217 151.967146 -33.17626953 151.46337891 C-41.11962646 147.46488491 -49.22678827 144.02788888 -57.51098633 140.79882812 C-74.52008664 134.16534249 -88.82948637 126.96414692 -102.21875 114.4609375 C-103.1365625 113.61273438 -104.054375 112.76453125 -105 111.890625 C-117.07732815 100.28620427 -125.70657232 85.9106141 -130.34375 69.8359375 C-130.56820801 69.07796875 -130.79266602 68.32 -131.02392578 67.5390625 C-131.89006094 64.27073846 -132.31841138 61.87637989 -131.5234375 58.5625 C-130.21875 56.4609375 -130.21875 56.4609375 -127.21875 54.4609375 C-124.15637818 54.61405609 -122.72846796 54.90339415 -120.63671875 57.19140625 C-119.04491308 59.73917235 -118.58366726 61.7035966 -118.03125 64.6484375 C-114.90164533 77.91277232 -108.53437756 89.55136053 -99.21875 99.4609375 C-98.09726563 100.71777344 -98.09726563 100.71777344 -96.953125 102 C-85.92975106 113.78989994 -72.86986576 120.4837912 -58.05566406 126.32470703 C-52.42948585 128.5780834 -46.86036213 130.96902975 -41.28125 133.3359375 C-39.58295044 134.05124634 -39.58295044 134.05124634 -37.8503418 134.78100586 C-36.78726807 135.22968018 -35.72419434 135.67835449 -34.62890625 136.140625 C-33.68152588 136.54007324 -32.73414551 136.93952148 -31.75805664 137.35107422 C-29.53722256 138.32174163 -27.37338303 139.35244259 -25.21875 140.4609375 C-26.44755216 139.1667633 -26.44755216 139.1667633 -29.21875 137.4609375 C-28.88875 136.4709375 -28.55875 135.4809375 -28.21875 134.4609375 C-26.89875 134.4609375 -25.57875 134.4609375 -24.21875 134.4609375 C-24.21875 135.1209375 -24.21875 135.7809375 -24.21875 136.4609375 C-23.55875 136.4609375 -22.89875 136.4609375 -22.21875 136.4609375 C-21.88875 135.8009375 -21.55875 135.1409375 -21.21875 134.4609375 C-25.77290985 127.62969772 -31.69695181 121.83719056 -37.5078125 116.07421875 C-38.17412689 115.40931931 -38.84044128 114.74441986 -39.52694702 114.05937195 C-41.6301817 111.96166991 -43.7368813 109.86748894 -45.84375 107.7734375 C-47.26325462 106.35895854 -48.68252735 104.94424682 -50.1015625 103.52929688 C-52.70511335 100.93386171 -55.30997911 98.33976287 -57.91650391 95.74731445 C-79.0761925 74.69705297 -96.02783348 50.8213092 -96.46875 19.7734375 C-96.49453125 18.67644531 -96.5203125 17.57945313 -96.546875 16.44921875 C-96.18275186 13.13309725 -95.58896551 11.77577414 -93.21875 9.4609375 C-90.21875 9.0234375 -90.21875 9.0234375 -87.21875 9.4609375 C-84.28528929 11.74054412 -84.22386582 12.42509071 -83.6640625 16.34765625 C-83.55054921 17.94745253 -83.44421499 19.54776883 -83.34375 21.1484375 C-81.71156818 40.05484247 -74.60351267 59.60488036 -61.21875 73.4609375 C-60.55875 73.7909375 -59.89875 74.1209375 -59.21875 74.4609375 C-57.45019194 70.06517934 -55.68437076 65.66833289 -53.9206543 61.27062988 C-53.28667017 59.69071023 -52.65206842 58.11103828 -52.0168457 56.53161621 C-48.53744422 47.87823061 -45.09791512 39.21550227 -41.828125 30.48046875 C-41.29727154 29.0716692 -40.76634854 27.66289585 -40.23535156 26.25415039 C-39.24214473 23.61698376 -38.2681154 20.97373989 -37.30371094 18.32592773 C-34.2254776 10.14572617 -31.16064904 3.8016622 -23.65625 -0.9765625 C-16.20284032 -4.28124126 -7.14335122 -3.79896406 0 0 Z M-20.21875 12.4609375 C-22.38080363 15.76777398 -24.0111704 19.11057879 -25.49609375 22.765625 C-25.92140381 23.80928223 -26.34671387 24.85293945 -26.78491211 25.92822266 C-27.23745361 27.05276855 -27.68999512 28.17731445 -28.15625 29.3359375 C-28.6313501 30.50817871 -29.1064502 31.68041992 -29.59594727 32.88818359 C-33.90414807 43.54991144 -38.05470961 54.27307186 -42.15795898 65.01513672 C-42.86674194 66.86389404 -42.86674194 66.86389404 -43.58984375 68.75 C-44.03312012 69.90918945 -44.47639648 71.06837891 -44.93310547 72.26269531 C-46.35787595 75.80703509 -47.9666802 79.22165946 -49.73461914 82.60693359 C-50.4243686 84.49513073 -50.4243686 84.49513073 -49.45309448 86.36151123 C-48.15288041 88.57297134 -46.78597095 90.11548025 -44.95336914 91.90576172 C-43.95576317 92.88861649 -43.95576317 92.88861649 -42.93800354 93.8913269 C-42.21725143 94.59234528 -41.49649933 95.29336365 -40.75390625 96.015625 C-39.21535831 97.53371586 -37.67695165 99.05194991 -36.13867188 100.5703125 C-33.72593704 102.93996713 -31.31078087 105.3070736 -28.89233398 107.67089844 C-15.68189877 120.60426801 -4.44387866 133.62715771 5.65625 149.1484375 C7.01865499 151.21542159 8.38195011 153.28181921 9.74609375 155.34765625 C10.7513208 156.87398682 10.7513208 156.87398682 11.77685547 158.43115234 C14.88736606 163.13291074 18.0444068 167.8021089 21.21875 172.4609375 C22.04318604 173.68043091 22.04318604 173.68043091 22.88427734 174.92456055 C23.38523926 175.65843994 23.88620117 176.39231934 24.40234375 177.1484375 C25.05867798 178.11330078 25.05867798 178.11330078 25.72827148 179.09765625 C26.24949585 179.77248047 26.24949585 179.77248047 26.78125 180.4609375 C27.11125 180.4609375 27.44125 180.4609375 27.78125 180.4609375 C27.85859375 179.30658203 27.85859375 179.30658203 27.9375 178.12890625 C28.95444254 167.83236305 31.72239913 158.35478385 34.94921875 148.53393555 C41.61212624 127.51647249 36.84338497 112.70975322 28.65625 93.2734375 C27.43403275 90.33823448 26.21582252 87.40138992 24.99794006 84.46438599 C24.16557869 82.45744448 23.33202292 80.45099795 22.49729919 78.44503784 C17.91874161 67.42850141 13.51028244 56.34507072 9.12078857 45.25210571 C5.84083144 36.96621515 2.52061141 28.69987883 -0.98828125 20.5078125 C-1.26886887 19.83993713 -1.54945648 19.17206177 -1.83854675 18.48394775 C-3.79243987 13.91633495 -3.79243987 13.91633495 -7.21875 10.4609375 C-12.59675395 9.24654951 -15.8146775 8.68601822 -20.21875 12.4609375 Z M-19.21875 135.4609375 C-18.88875 136.4509375 -18.55875 137.4409375 -18.21875 138.4609375 C-18.21875 137.4709375 -18.21875 136.4809375 -18.21875 135.4609375 C-18.54875 135.4609375 -18.87875 135.4609375 -19.21875 135.4609375 Z M-17.21875 143.4609375 C-16.88875 144.4509375 -16.55875 145.4409375 -16.21875 146.4609375 C-15.55875 146.1309375 -14.89875 145.8009375 -14.21875 145.4609375 C-15.20875 144.8009375 -16.19875 144.1409375 -17.21875 143.4609375 Z " fill="#9FF6AA" transform="translate(156.21875,7.5390625)"/>
<path d="M0 0 C1.66666667 0 3.33333333 0 5 0 C5 0.66 5 1.32 5 2 C5.66 2 6.32 2 7 2 C7.33 1.34 7.66 0.68 8 0 C12.23448114 2.97982006 16.32894169 5.98682507 18 11 C19.62652316 12.70586575 21.29006566 14.3777546 23 16 C22.67 16.66 22.34 17.32 22 18 C20.87043002 17.23587913 19.74651022 16.46340197 18.625 15.6875 C17.99851563 15.25824219 17.37203125 14.82898438 16.7265625 14.38671875 C15 13 15 13 13 10 C12.01 10.495 12.01 10.495 11 11 C8.96166576 9.7260411 6.96147874 8.38938077 5 7 C5 6.34 5 5.68 5 5 C2.525 4.01 2.525 4.01 0 3 C0 2.01 0 1.02 0 0 Z " fill="#02FCFC" transform="translate(127,142)"/>
<path d="M0 0 C0.66 0.33 1.32 0.66 2 1 C-2.95 5.95 -7.9 10.9 -13 16 C-13.66 15.67 -14.32 15.34 -15 15 C-13.44221619 13.2456027 -11.87905295 11.49653989 -10.3125 9.75 C-9.44238281 8.77546875 -8.57226562 7.8009375 -7.67578125 6.796875 C-5.25206689 4.26347429 -2.7912151 2.11227089 0 0 Z " fill="#89E9B0" transform="translate(62,215)"/>
<path d="M0 0 C2 1 2 1 2 1 Z " fill="#00FFFF" transform="translate(128,141)"/>
<path d="" fill="#00FFFF" transform="translate(0,0)"/>
<path d="" fill="#00FFFF" transform="translate(0,0)"/>
<path d="" fill="#00FFFF" transform="translate(0,0)"/>
</svg>
